<svg xmlns:rdf="http://www.w3.org/1999/02/22-rdf-syntax-ns#" style="shape-rendering:geometricPrecision" xmlns="http://www.w3.org/2000/svg" height="13.818" width="187.04" version="1.1" xmlns:cc="http://creativecommons.org/ns#" xmlns:dc="http://purl.org/dc/elements/1.1/" viewBox="0 0 187.03999 13.818">
 <title>Deutsche Telekom AG Brand Claim</title>
 <desc>The Brand Claim of the Deutsche Telekom AG</desc>
 <style><![CDATA[
    .st0{fill:#FFFFFF;}
  ]]></style>
 <path fill="#fff" class="st0" d="m0 11.25v-11h7.018v2.014h-4.658v2.353h4.26v1.918h-4.26v2.695h4.756v2.02m1.88 0v-11h4.234c1.11 0 1.964 0.245 2.572 0.725 0.69 0.553 1.042 1.338 1.042 2.35 0 0.83-0.25 1.53-0.733 2.095-0.216 0.25-0.5 0.462-0.85 0.632 0.45 0.138 0.792 0.426 1.043 0.837 0.16 0.266 0.274 0.642 0.347 1.144 0.03 0.18 0.082 0.73 0.142 1.653 0.047 0.58 0.102 0.967 0.177 1.164 0.044 0.105 0.11 0.237 0.203 0.4h-2.433c-0.08-0.18-0.13-0.383-0.166-0.626-0.01-0.13-0.05-0.608-0.108-1.414-0.062-0.767-0.16-1.27-0.29-1.528-0.16-0.353-0.413-0.583-0.74-0.673-0.168-0.056-0.412-0.08-0.718-0.08h-1.355v4.321h-2.367zm2.366-6.096h1.294c0.72 0 1.206-0.154 1.476-0.453 0.234-0.268 0.344-0.633 0.344-1.095 0-0.565-0.187-0.98-0.576-1.244-0.233-0.152-0.627-0.23-1.19-0.23h-1.35v3.024zm7.558 6.096v-11h2.363v8.96h4.322v2.04m1.411 0v-11h7.016v2.014h-4.656v2.353h4.26v1.918h-4.26v2.695h4.752v2.02m1.888 0v-11h3.924c0.78 0 1.38 0.07 1.805 0.22 0.61 0.216 1.065 0.564 1.36 1.043 0.264 0.43 0.4 0.904 0.4 1.42 0 1.08-0.534 1.864-1.582 2.353 1.335 0.456 2.008 1.368 2.008 2.724 0 1.2-0.45 2.092-1.352 2.68-0.567 0.37-1.324 0.56-2.263 0.56h-4.3zm2.36-6.55h1.053c0.582 0 0.993-0.086 1.246-0.27 0.33-0.246 0.496-0.595 0.496-1.05 0-0.502-0.2-0.86-0.6-1.072-0.218-0.12-0.6-0.178-1.142-0.178h-1.053v2.57zm0 4.677h1.274c0.666 0 1.13-0.118 1.4-0.334 0.343-0.275 0.516-0.674 0.516-1.193 0-0.612-0.233-1.03-0.686-1.28-0.267-0.147-0.71-0.222-1.33-0.222h-1.175v3.03zm7.269 1.873v-11h7.018v2.014h-4.658v2.353h4.258v1.918h-4.258v2.695h4.754v2.02m1.887 0v-11h2.387l3.448 7.08v-7.08h2.266v11h-2.363l-3.475-7.07v7.07m10.467-2.373v1.836c0 0.733-0.1 1.308-0.296 1.725-0.183 0.382-0.503 0.71-0.96 0.99-0.34 0.214-0.73 0.35-1.16 0.39v-1.143c0.34-0.09 0.594-0.27 0.772-0.543 0.16-0.255 0.244-0.542 0.253-0.882h-1.025v-2.373h2.416zm3.407-8.627h2.37l1.31 7.54 1.415-7.54h2.243l1.415 7.556 1.318-7.556h2.353l-2.477 11h-2.36l-1.385-7.467-1.365 7.467h-2.38m13.27-11h2.417l3.483 11h-2.453l-0.694-2.455h-3.135l-0.692 2.455h-2.418l3.492-11zm0.134 6.768h2.134l-1.063-3.8-1.07 3.8zm6.276 1.015h2.376c0.07 0.437 0.16 0.75 0.307 0.962 0.275 0.42 0.676 0.642 1.202 0.642 0.463 0 0.826-0.143 1.085-0.427 0.234-0.25 0.34-0.562 0.34-0.94 0-0.428-0.18-0.784-0.54-1.074-0.17-0.15-0.39-0.272-0.648-0.38-0.075-0.036-0.344-0.143-0.818-0.31-0.902-0.312-1.548-0.627-1.956-0.938-0.802-0.642-1.203-1.47-1.203-2.5 0-0.878 0.28-1.596 0.843-2.148 0.617-0.61 1.487-0.92 2.59-0.92 1.365 0 2.408 0.473 3.092 1.415 0.32 0.438 0.532 1.015 0.63 1.737h-2.3c-0.062-0.425-0.19-0.73-0.404-0.924-0.253-0.23-0.606-0.34-1.038-0.34-0.37 0-0.667 0.085-0.867 0.26-0.244 0.202-0.363 0.486-0.363 0.85 0 0.417 0.183 0.75 0.553 1 0.26 0.192 0.79 0.42 1.587 0.68 0.932 0.3 1.65 0.648 2.157 1.058 0.745 0.583 1.115 1.383 1.115 2.388 0 0.99-0.346 1.81-1.027 2.423-0.724 0.655-1.673 0.973-2.87 0.973-1.42 0-2.48-0.535-3.178-1.6-0.35-0.553-0.573-1.188-0.666-1.887m17.411 3.217h-2.63l-3-11h2.47l1.902 7.93 1.89-7.93h2.41m1.194 11v-11h7.008v2.014h-4.652v2.353h4.26v1.918h-4.26v2.695h4.758v2.02m1.884 0v-11h4.224c1.105 0 1.972 0.245 2.567 0.725 0.7 0.553 1.052 1.338 1.052 2.35 0 0.83-0.248 1.53-0.733 2.095-0.22 0.25-0.506 0.462-0.856 0.632 0.45 0.138 0.798 0.426 1.053 0.837 0.16 0.266 0.27 0.642 0.347 1.144 0.023 0.18 0.072 0.73 0.14 1.653 0.046 0.58 0.098 0.967 0.18 1.164 0.045 0.105 0.104 0.237 0.2 0.4h-2.44c-0.068-0.18-0.125-0.383-0.157-0.626-0.02-0.13-0.06-0.608-0.112-1.414-0.06-0.767-0.164-1.27-0.297-1.528-0.155-0.353-0.408-0.583-0.738-0.673-0.165-0.056-0.404-0.08-0.717-0.08h-1.35v4.321h-2.36zm2.36-6.096h1.3c0.714 0 1.2-0.154 1.463-0.453 0.235-0.268 0.357-0.633 0.357-1.095 0-0.565-0.19-0.98-0.58-1.244-0.234-0.152-0.634-0.23-1.202-0.23h-1.34v3.024zm7.556 6.096v-11h3.933c0.767 0 1.374 0.07 1.802 0.22 0.606 0.216 1.065 0.564 1.354 1.043 0.27 0.43 0.394 0.904 0.394 1.42 0 1.08-0.524 1.864-1.57 2.353 1.337 0.456 2 1.368 2 2.724 0 1.2-0.455 2.092-1.355 2.68-0.564 0.37-1.315 0.56-2.255 0.56h-4.305zm2.36-6.55h1.06c0.58 0 0.99-0.086 1.246-0.27 0.33-0.246 0.495-0.595 0.495-1.05 0-0.502-0.202-0.86-0.606-1.072-0.214-0.12-0.584-0.178-1.134-0.178h-1.06v2.57zm0 4.677h1.274c0.67 0 1.128-0.118 1.41-0.334 0.345-0.275 0.513-0.674 0.513-1.193 0-0.612-0.232-1.03-0.68-1.28-0.274-0.147-0.726-0.222-1.333-0.222h-1.184v3.03zm7.27 1.873v-11h2.363v11m2.144 0v-11h2.387l3.448 7.08v-7.08h2.262v11h-2.366l-3.475-7.07v7.07m7.991 0v-11h3.39c1.496 0 2.677 0.398 3.526 1.192 1.042 0.972 1.564 2.405 1.564 4.308 0 1.815-0.49 3.23-1.484 4.234-0.536 0.55-1.15 0.913-1.853 1.074-0.506 0.138-1.085 0.19-1.764 0.19h-3.38zm2.362-2.02h1.054c0.832 0 1.445-0.188 1.83-0.587 0.587-0.62 0.877-1.604 0.877-2.934 0-1.108-0.242-1.978-0.744-2.608-0.43-0.56-1.114-0.838-2.033-0.838h-0.983v6.966zm7.801 2.02v-11h7.028v2.014h-4.664v2.353h4.26v1.918h-4.26v2.695h4.76v2.02m3.836 0v-8.986h-2.66v-2.014h7.702v2.014h-2.68v8.986m5.691-2.373v2.373h-2.42v-2.373h1.197"/>
</svg>
